<?xml version="1.0" encoding="UTF-8"?>
<svg id="Layer_1" data-name="Layer 1" xmlns="http://www.w3.org/2000/svg" viewBox="0 0 1292.61 1211.19">
  <defs>
    <style>
      .cls-1 {
        stroke: #231f20;
        stroke-width: 2.5px;
      }

      .cls-1, .cls-2, .cls-3 {
        fill: none;
        stroke-miterlimit: 10;
      }

      .cls-2 {
        stroke: navy;
        stroke-width: 2px;
      }

      .cls-4 {
        font-family: ArialNarrow-Bold, Arial;
        font-size: 32.64px;
        font-weight: 700;
      }

      .cls-3 {
        stroke: #262838;
        stroke-width: 3px;
      }

      .cls-5 {
        fill: #231f20;
      }

      .cls-6 {
        letter-spacing: .88em;
      }

      .cls-7 {
        fill: navy;
      }

      .cls-8 {
        letter-spacing: .88em;
      }

      .cls-9 {
        letter-spacing: .87em;
      }

      .cls-10 {
        letter-spacing: .82em;
      }
    </style>
  </defs>
  <path class="cls-7" d="M270.52,960.88c.31.07.63.1.95.1-.33,0-.64-.04-.95-.1ZM288.17,960.98c.32,0,.64-.03.95-.1-.31.06-.62.09-.95.1Z"/>
  <path class="cls-7" d="M340.77,840.72l-48.06,117.21c-.38.92-1.02,1.66-1.8,2.17-.09.06-.18.12-.27.17-.22.14-.45.26-.7.36-.13.05-.26.1-.4.14-.14.05-.28.08-.42.11-.31.06-.62.09-.95.1h-16.7c-.33,0-.64-.04-.95-.1-.14-.03-.28-.07-.42-.11-.14-.04-.27-.09-.4-.14-.2-.08-.4-.18-.59-.29-.04-.02-.07-.04-.11-.07-.09-.05-.18-.11-.27-.17-.78-.51-1.42-1.25-1.8-2.17l-48.06-117.21c-1.32-3.23,1.05-6.76,4.54-6.76h16.8c1.99,0,3.78,1.2,4.54,3.04l2.37,5.81c.2.49.17,1.04-.07,1.51l-5.67,10.71c-.64,1.22.27,2.67,1.65,2.62l8.77-.32c.75-.03,1.44.42,1.72,1.11l24.65,60.34c.61,1.48,2.71,1.48,3.31,0l33.41-81.79c.76-1.84,2.55-3.04,4.54-3.04h16.8c3.49,0,5.86,3.53,4.54,6.76Z"/>
  <path class="cls-7" d="M399.43,831.24c8.95,0,17.3,1.72,25.04,5.17,7.74,3.45,14.45,8.11,20.14,13.97,5.68,5.87,10.13,12.76,13.34,20.69,3.2,7.92,4.81,16.36,4.81,25.31,0,7.62-1.15,14.88-3.45,21.78-2.3,6.9-5.57,13.13-9.8,18.69-4.24,5.57-9.29,10.32-15.15,14.25-4.16,2.79-8.6,5.01-13.34,6.67-3.38,1.19-7.14-.19-8.96-3.28l-4.47-7.6c-2.37-4.03-.53-9.25,3.87-10.84,1.64-.6,3.23-1.32,4.75-2.19,4.17-2.36,7.77-5.38,10.8-9.07,3.02-3.69,5.38-7.98,7.08-12.88,1.69-4.9,2.54-10.07,2.54-15.51s-.94-11.07-2.81-16.15c-1.88-5.08-4.45-9.5-7.71-13.25-3.27-3.75-7.17-6.71-11.7-8.89-4.54-2.18-9.53-3.27-14.97-3.27s-10.43,1.09-14.97,3.27c-4.54,2.18-8.47,5.14-11.79,8.89-3.33,3.75-5.93,8.17-7.8,13.25-1.88,5.08-2.81,10.46-2.81,16.15s.94,11.07,2.81,16.15c1.87,5.08,4.47,9.5,7.8,13.25,3.33,3.75,7.26,6.71,11.79,8.89,2.72,1.31,5.6,2.22,8.65,2.74,3.63.62,6.32,3.72,6.32,7.41v8.73c0,4.52-3.97,8.02-8.45,7.45-5.81-.74-11.34-2.26-16.59-4.55-7.74-3.39-14.46-8.04-20.14-13.97-5.69-5.93-10.13-12.85-13.34-20.78-3.21-7.92-4.81-16.36-4.81-25.31s1.6-17.39,4.81-25.31c3.2-7.92,7.65-14.82,13.34-20.69,5.68-5.87,12.4-10.52,20.14-13.97,7.74-3.45,16.09-5.17,25.04-5.17Z"/>
  <path class="cls-7" d="M460.9,947.92l17.96-24.29c2.14-2.89,6.02-3.86,9.26-2.31l6.4,3.05c4.26,2.03,5.61,7.45,2.8,11.24l-15.74,21.24c-1.42,1.91-3.65,3.04-6.03,3.04h-8.61c-6.16,0-9.7-7.01-6.04-11.97ZM529.79,900.48l33.11,47.62c3.46,4.98-.1,11.79-6.16,11.79h-12.73c-2.47,0-4.78-1.21-6.18-3.25l-26.25-38.12-15.42-22.32-35.6-51.56c-3.44-4.98.13-11.77,6.18-11.77h12.34c2.61,0,5.04,1.36,6.4,3.59l19.69,32.18c2.93,4.79,9.9,4.78,12.82-.02l19.54-32.15c1.36-2.24,3.79-3.61,6.41-3.61h12.47c6.06,0,9.62,6.8,6.17,11.78l-32.77,47.26c-1.79,2.57-1.78,5.99,0,8.56Z"/>
  <path class="cls-7" d="M664.42,840.31l.05,6.22c.04,4.17-3.33,7.57-7.51,7.57h-44.64c-4.14,0-7.5,3.35-7.51,7.49l-.15,69.73c0,4.15,3.35,7.52,7.51,7.52h44.67c4.15,0,7.51,3.36,7.51,7.51v6.04c0,4.15-3.36,7.51-7.51,7.51h-70.09c-4.15,0-7.51-3.36-7.51-7.51v-112.01c0-4.15,3.36-7.51,7.51-7.51h70.16c4.12,0,7.47,3.32,7.51,7.44ZM624.05,905.31h-6.67c-2.84,0-5.44-1.61-6.71-4.15l-.34-.67c-2.5-4.99,1.13-10.86,6.71-10.86h7.01c4.15,0,7.51,3.36,7.51,7.51v.67c0,4.15-3.36,7.51-7.51,7.51Z"/>
  <path class="cls-7" d="M677.05,954.38v-116c0-3.04,2.47-5.51,5.51-5.51h14.39c3.04,0,5.51,2.47,5.51,5.51v116c0,3.04-2.47,5.51-5.51,5.51h-14.39c-3.04,0-5.51-2.47-5.51-5.51ZM712.49,944.7h34.71c3.04,0,5.51,2.47,5.51,5.51v3.99c0,3.04-2.47,5.51-5.51,5.51h-32.48c-2,0-3.84-1.08-4.81-2.83l-2.23-3.99c-2.05-3.67.61-8.19,4.81-8.19Z"/>
  <path class="cls-7" d="M797.72,840.38v112.01c0,4.15-3.36,7.51-7.51,7.51h-11.48c-4.15,0-7.51-3.36-7.51-7.51v-112.01c0-4.15,3.36-7.51,7.51-7.51h11.48c4.15,0,7.51,3.36,7.51,7.51Z"/>
  <path class="cls-7" d="M835.28,907.45c0,4.36.75,8.44,2.27,12.25,1.51,3.81,3.6,7.14,6.26,9.98,2.66,2.84,5.78,5.11,9.34,6.8,1.77.84,3.6,1.47,5.47,1.9,3.43.77,5.87,3.8,5.87,7.32v7.58c0,4.58-4.07,8.12-8.6,7.43s-8.73-1.88-12.81-3.63c-6.65-2.84-12.49-6.74-17.51-11.7-5.02-4.96-8.95-10.76-11.79-17.42-2.84-6.65-4.26-13.79-4.26-21.41v-66.17c0-4.15,3.36-7.51,7.51-7.51h10.76c4.15,0,7.51,3.36,7.51,7.51v67.07ZM911.61,832.87c4.15,0,7.51,3.36,7.51,7.51v66.17c0,6.41-1.06,12.49-3.18,18.24-2.12,5.75-5.02,10.95-8.71,15.61-3.69,4.66-8.07,8.65-13.16,11.98-3.22,2.11-6.61,3.86-10.16,5.27-3.52,1.39-7.53-.11-9.33-3.44l-3.75-6.95c-2.09-3.88-.28-8.62,3.79-10.33.75-.32,1.49-.67,2.21-1.06,3.27-1.75,6.14-4.05,8.62-6.9,2.48-2.84,4.41-6.11,5.81-9.8,1.39-3.69,2.09-7.59,2.09-11.7,0-.12-.03-.21-.09-.27-.06-.06-.09-.15-.09-.27,0-.36.03-.42.09-.18.06.24.09.03.09-.63v-65.71c0-4.15,3.36-7.51,7.51-7.51h10.76Z"/>
  <path class="cls-7" d="M1032.75,832.87h8.06c4.15,0,7.51,3.36,7.51,7.51v6.56c0,1.48-.44,2.92-1.25,4.15l-51.12,77.07c-2.97,4.47-9.53,4.48-12.5,0l-13.19-19.83c-4.12-6.18-13.75-3.27-13.75,4.16v39.89c0,4.15-3.36,7.51-7.51,7.51h-10.58c-4.15,0-7.51-3.36-7.51-7.51v-112.01c0-4.15,3.36-7.51,7.51-7.51h8.07c2.51,0,4.86,1.26,6.25,3.35l30.7,46.2c2.97,4.47,9.55,4.47,12.51-.01l30.54-46.17c1.39-2.1,3.74-3.36,6.26-3.36ZM1022.73,952.39v-43.27c0-3.04,1.83-5.78,4.64-6.94l10.57-4.37c4.94-2.04,10.37,1.59,10.37,6.94v47.64c0,4.15-3.36,7.51-7.51,7.51h-10.57c-4.15,0-7.51-3.36-7.51-7.51Z"/>
  <path class="cls-1" d="M790.94,248.79c17.28,0,31.28,14,31.28,31.28v317.7c0,17.28-14,31.28-31.28,31.28"/>
  <path class="cls-1" d="M473.25,629.06c-17.28,0-31.3-14-31.3-31.28v-317.7c0-17.28,14.02-31.28,31.3-31.28"/>
  <path class="cls-1" d="M577.84,637.87c-4.82,0-7.83,5.22-5.42,9.39l57.57,99.71c2.41,4.18,8.44,4.18,10.85,0l57.57-99.71c2.41-4.18-.6-9.39-5.42-9.39"/>
  <path class="cls-1" d="M600.45,668.05l31.95,55.34c1.34,2.32,4.68,2.32,6.02,0l31.95-55.34"/>
  <polygon points="1171.53 455.11 822.22 455.11 822.22 418.2 1125.25 418.2 1171.53 455.11"/>
  <g>
    <path class="cls-7" d="M751.07,622.22l-81.89-94.57-16.21-18.73,97.95-113.09c1.54-1.79,3.45-2.56,5.28-2.56,2,0,3.92.91,5.31,2.34,2.04,2.09,2.86,5.31.95,8.53l-.95,1.61-58.93,99.42c-1.34,2.24-1.34,5.03,0,7.28l9,15.21,51.04,86.25c4.44,7.48-5.85,14.9-11.54,8.32Z"/>
    <path class="cls-7" d="M617.86,508.92l-16.21,18.73-81.92,94.57c-5.69,6.58-15.96-.84-11.54-8.32l51.04-86.25,9-15.21c1.34-2.24,1.34-5.03,0-7.28l-58.93-99.47-.93-1.56c-1.93-3.24-1.09-6.46.93-8.55,1.38-1.43,3.33-2.31,5.33-2.31,1.84,0,3.72.77,5.28,2.56l97.95,113.09Z"/>
    <polygon class="cls-7" points="786.38 323.51 635.41 497.81 484.45 323.51 484.45 269.42 635.41 443.73 786.38 269.42 786.38 323.51"/>
  </g>
  <polygon points="440.31 418.2 440.31 455.11 91.02 455.11 91.02 455.09 138.32 418.2 440.31 418.2"/>
  <path class="cls-3" d="M143.49,455.11s13.01,75.28,74.37,74.37c61.36-.9,79.3-704.27,392.72-329.05"/>
  <path class="cls-3" d="M180.57,455.11s13.01,75.28,74.37,74.37c61.36-.9,79.3-704.27,392.72-329.05"/>
  <rect class="cls-5" x="215.09" y="984.87" width="832.36" height="5.16"/>
  <text class="cls-4" transform="translate(212.68 1025.17)"><tspan class="cls-6" x="0" y="0">CONCEPT </tspan><tspan class="cls-9" x="368.04" y="0">T</tspan><tspan class="cls-6" x="412.64" y="0">O CRE</tspan><tspan class="cls-10" x="641" y="0">A</tspan><tspan class="cls-8" x="687.08" y="0">TION</tspan></text>
  <path class="cls-2" d="M635.41,750.1s-9.94,11.57,0,21.51c9.94,9.94,10.14,15.39,0,25.53-10.14,10.14-17.86,19.42,0,37.28"/>
</svg>